<svg xmlns="http://www.w3.org/2000/svg" viewBox="0 0 24 24"><defs><style>.a{fill:#fff;}</style></defs><circle class="a" cx="12" cy="12" r="12"/><path d="M12,0A11.99652,11.99652,0,0,0,8.207,23.37878c.599.111.793-.26091.793-.5768V20.56877c-3.338.72574-4.033-1.41551-4.033-1.41551a3.17745,3.17745,0,0,0-1.333-1.75538c-1.089-.74474.083-.72874.083-.72874A2.519,2.519,0,0,1,5.556,17.9057a2.55485,2.55485,0,0,0,3.492.99665,2.54468,2.54468,0,0,1,.762-1.60344C7.145,16.994,4.343,15.96538,4.343,11.37A4.642,4.642,0,0,1,5.579,8.15013a4.31334,4.31334,0,0,1,.117-3.17488s1.008-.32189,3.301,1.22957a11.37785,11.37785,0,0,1,6.009,0c2.291-1.55146,3.297-1.22957,3.297-1.22957a4.30926,4.30926,0,0,1,.118,3.17488A4.6295,4.6295,0,0,1,19.656,11.37c0,4.60738-2.807,5.622-5.479,5.91892A2.86677,2.86677,0,0,1,15,19.51014V22.802c0,.31889.192.69375.801.5758A11.99748,11.99748,0,0,0,12,0Z" transform="translate(0)"/></svg>