<svg xmlns="http://www.w3.org/2000/svg" viewBox="0 0 20 24"><defs><style>.a{fill:#2291c4;}.b{fill:#22316a;}</style></defs><path class="a" d="M21.99458,9.761a8.702,8.702,0,0,1-.169,1.627c-.84677,4.419-3.745,5.946-7.447,5.946h-.57184a.92239.92239,0,0,0-.90776.789l-.80278,5.09A.924.924,0,0,1,11.1885,24H8.45323a.63507.63507,0,0,1-.62783-.732L9.211,14.388l.062-.056h2.15442c5.23359,0,8.5067-2.618,9.47044-7.568A4.07462,4.07462,0,0,1,21.99458,9.761Z" transform="translate(-2 0)"/><path class="b" d="M7.78241,14.013c.116-.826.45888-1.177,1.38463-1.179l2.25939-.002c4.57277,0,7.19606-2.09,8.02084-6.39C20.24705,2.308,17.34583,0,13.41789,0h-7.342A1.05528,1.05528,0,0,0,5.03815.901C2.73478,15.736,2.069,19.508,2.001,20.659a.637.637,0,0,0,.601.671l.03383.001H6.62373Z" transform="translate(-2 0)"/></svg>