<svg xmlns="http://www.w3.org/2000/svg" xmlns:xlink="http://www.w3.org/1999/xlink" viewBox="0 0 24 24"><defs><style>.a{fill:#202020;}.b{fill:url(#a);}</style><linearGradient id="a" x1="20.48512" y1="3.51488" x2="3.51488" y2="20.48512" gradientUnits="userSpaceOnUse"><stop offset="0" stop-color="#ed141e"/><stop offset="1" stop-color="#fff100"/></linearGradient></defs><circle class="a" cx="12" cy="12" r="12"/><path class="b" d="M12,0A12,12,0,1,0,24,12,12.00053,12.00053,0,0,0,12,0Zm7.753,18.305a2.37123,2.37123,0,0,0-1.871-1.241c-2.293-.529-4.428-.993-3.393-2.945C17.634,8.177,15.322,5,12,5,8.612,5,6.356,8.299,9.511,14.119c1.066,1.964-1.148,2.427-3.393,2.945A2.35516,2.35516,0,0,0,4.251,18.31a10,10,0,1,1,15.502-.005Z"/></svg>